<svg xmlns="http://www.w3.org/2000/svg" viewBox="0 0 370 140">
    <g fill="#CC7832" stroke="#CC7832" stroke-width="0">
        <path d="M 57.457 26.846 L 57.457 23.908 Q 57.457 22.413 58.03 21.766 Q 58.602 21.119 59.549 21.119 Q 60.495 21.119 61.068 21.766 Q 61.64 22.413 61.64 23.908 L 61.64 35.512 Q 61.64 37.056 61.068 37.703 Q 60.495 38.351 59.549 38.351 Q 58.702 38.351 58.129 37.753 Q 57.556 37.156 57.457 35.811 Q 57.208 31.627 52.925 28.39 Q 47.147 23.957 39.776 23.957 Q 34.945 23.957 30.662 26.099 Q 27.474 27.643 25.582 29.884 Q 22.295 33.769 20.352 38.5 Q 18.958 41.987 18.958 46.369 L 18.958 53.691 Q 18.958 63.054 25.731 69.952 Q 32.505 76.85 41.47 76.85 Q 46.848 76.85 51.107 74.509 Q 55.365 72.168 59.349 67.437 Q 60.196 66.391 61.242 66.391 Q 62.138 66.391 62.686 66.939 Q 63.234 67.487 63.234 68.333 Q 63.234 69.479 61.093 71.82 Q 57.009 76.402 51.904 78.718 Q 46.799 81.034 41.569 81.034 Q 37.037 81.034 32.355 79.29 Q 28.769 77.946 26.428 76.153 Q 24.088 74.36 20.676 70.101 Q 17.264 65.843 16.019 62.232 Q 14.774 58.621 14.774 54.288 L 14.774 45.772 Q 14.774 39.596 18.086 33.146 Q 21.398 26.697 27.151 23.235 Q 32.903 19.774 39.627 19.774 Q 49.986 19.774 57.457 26.846 Z"/>
        <path d="M 91.373 16.885 L 91.373 75.206 L 107.809 75.206 Q 109.353 75.206 110 75.779 Q 110.647 76.352 110.647 77.298 Q 110.647 78.195 110 78.792 Q 109.353 79.39 107.809 79.39 L 70.754 79.39 Q 69.26 79.39 68.612 78.792 Q 67.965 78.195 67.965 77.298 Q 67.965 76.352 68.612 75.779 Q 69.26 75.206 70.754 75.206 L 87.189 75.206 L 87.189 21.119 L 75.137 21.119 Q 73.643 21.119 72.97 20.521 Q 72.298 19.923 72.298 18.977 Q 72.298 18.08 72.945 17.483 Q 73.593 16.885 75.137 16.885 Z"/>
        <path d="M 151.495 79.39 L 151.495 73.364 Q 142.381 81.034 132.022 81.034 Q 124.501 81.034 120.268 77.223 Q 116.034 73.413 116.034 67.885 Q 116.034 61.809 121.613 57.277 Q 127.191 52.744 137.899 52.744 Q 140.787 52.744 144.174 53.118 Q 147.561 53.492 151.495 54.288 L 151.495 47.515 Q 151.495 44.078 148.308 41.538 Q 145.12 38.998 138.745 38.998 Q 133.865 38.998 125.049 41.837 Q 123.455 42.335 123.007 42.335 Q 122.21 42.335 121.637 41.738 Q 121.065 41.14 121.065 40.244 Q 121.065 39.397 121.563 38.899 Q 122.26 38.152 127.191 36.857 Q 134.96 34.765 138.945 34.765 Q 146.864 34.765 151.296 38.675 Q 155.729 42.584 155.729 47.515 L 155.729 75.206 L 161.307 75.206 Q 162.851 75.206 163.498 75.779 Q 164.146 76.352 164.146 77.298 Q 164.146 78.195 163.498 78.792 Q 162.851 79.39 161.307 79.39 Z M 151.495 58.572 Q 148.557 57.725 145.27 57.327 Q 141.983 56.928 138.347 56.928 Q 129.233 56.928 124.103 60.863 Q 120.218 63.801 120.218 67.885 Q 120.218 71.67 123.181 74.26 Q 126.145 76.85 131.823 76.85 Q 137.251 76.85 141.908 74.683 Q 146.565 72.517 151.495 67.786 Z"/>
        <path d="M 203.499 38.998 Q 203.499 37.554 204.097 36.907 Q 204.695 36.259 205.591 36.259 Q 206.538 36.259 207.135 36.907 Q 207.733 37.554 207.733 39.098 L 207.733 46.27 Q 207.733 47.764 207.135 48.411 Q 206.538 49.059 205.591 49.059 Q 204.745 49.059 204.172 48.511 Q 203.599 47.963 203.499 46.718 Q 203.201 43.73 200.412 41.787 Q 196.328 38.998 189.604 38.998 Q 182.582 38.998 178.697 41.837 Q 175.758 43.979 175.758 46.619 Q 175.758 49.607 179.245 51.599 Q 181.635 52.994 188.309 53.741 Q 197.025 54.687 200.412 55.882 Q 205.243 57.625 207.608 60.713 Q 209.974 63.801 209.974 67.387 Q 209.974 72.716 204.844 76.875 Q 199.714 81.034 189.803 81.034 Q 179.892 81.034 173.567 76.003 Q 173.567 77.697 173.368 78.195 Q 173.168 78.693 172.645 79.041 Q 172.123 79.39 171.475 79.39 Q 170.579 79.39 169.981 78.743 Q 169.383 78.095 169.383 76.601 L 169.383 67.985 Q 169.383 66.491 169.956 65.843 Q 170.529 65.196 171.475 65.196 Q 172.372 65.196 172.994 65.818 Q 173.617 66.441 173.617 67.487 Q 173.617 69.778 174.762 71.322 Q 176.505 73.712 180.315 75.281 Q 184.125 76.85 189.654 76.85 Q 197.822 76.85 201.806 73.812 Q 205.79 70.774 205.79 67.387 Q 205.79 63.502 201.756 61.161 Q 197.672 58.821 189.878 58.024 Q 182.083 57.227 178.697 55.932 Q 175.31 54.637 173.417 52.047 Q 171.525 49.457 171.525 46.469 Q 171.525 41.09 176.804 37.928 Q 182.083 34.765 189.405 34.765 Q 198.071 34.765 203.499 38.998 Z"/>
        <path d="M 253.702 38.998 Q 253.702 37.554 254.3 36.907 Q 254.897 36.259 255.794 36.259 Q 256.74 36.259 257.338 36.907 Q 257.935 37.554 257.935 39.098 L 257.935 46.27 Q 257.935 47.764 257.338 48.411 Q 256.74 49.059 255.794 49.059 Q 254.947 49.059 254.374 48.511 Q 253.801 47.963 253.702 46.718 Q 253.403 43.73 250.614 41.787 Q 246.53 38.998 239.806 38.998 Q 232.784 38.998 228.899 41.837 Q 225.961 43.979 225.961 46.619 Q 225.961 49.607 229.447 51.599 Q 231.838 52.994 238.511 53.741 Q 247.227 54.687 250.614 55.882 Q 255.445 57.625 257.811 60.713 Q 260.176 63.801 260.176 67.387 Q 260.176 72.716 255.047 76.875 Q 249.917 81.034 240.006 81.034 Q 230.094 81.034 223.769 76.003 Q 223.769 77.697 223.57 78.195 Q 223.371 78.693 222.848 79.041 Q 222.325 79.39 221.677 79.39 Q 220.781 79.39 220.183 78.743 Q 219.586 78.095 219.586 76.601 L 219.586 67.985 Q 219.586 66.491 220.158 65.843 Q 220.731 65.196 221.677 65.196 Q 222.574 65.196 223.197 65.818 Q 223.819 66.441 223.819 67.487 Q 223.819 69.778 224.965 71.322 Q 226.708 73.712 230.518 75.281 Q 234.328 76.85 239.856 76.85 Q 248.024 76.85 252.009 73.812 Q 255.993 70.774 255.993 67.387 Q 255.993 63.502 251.959 61.161 Q 247.875 58.821 240.08 58.024 Q 232.286 57.227 228.899 55.932 Q 225.512 54.637 223.62 52.047 Q 221.727 49.457 221.727 46.469 Q 221.727 41.09 227.007 37.928 Q 232.286 34.765 239.607 34.765 Q 248.273 34.765 253.702 38.998 Z"/>
        <path d="M 290.366 79.39 L 270.942 40.493 L 269.697 40.493 Q 268.203 40.493 267.556 39.895 Q 266.908 39.297 266.908 38.401 Q 266.908 37.753 267.232 37.23 Q 267.556 36.707 268.079 36.483 Q 268.602 36.259 269.697 36.259 L 281.152 36.259 Q 282.646 36.259 283.294 36.857 Q 283.941 37.454 283.941 38.401 Q 283.941 39.297 283.294 39.895 Q 282.646 40.493 281.152 40.493 L 275.524 40.493 L 292.607 74.808 L 309.441 40.493 L 303.813 40.493 Q 302.319 40.493 301.672 39.895 Q 301.024 39.297 301.024 38.351 Q 301.024 37.454 301.672 36.857 Q 302.319 36.259 303.813 36.259 L 315.219 36.259 Q 316.763 36.259 317.41 36.857 Q 318.058 37.454 318.058 38.401 Q 318.058 39.048 317.659 39.596 Q 317.261 40.144 316.763 40.318 Q 316.265 40.493 313.974 40.493 L 287.477 94.431 L 294.002 94.431 Q 295.496 94.431 296.143 95.004 Q 296.791 95.577 296.791 96.523 Q 296.791 97.419 296.143 98.017 Q 295.496 98.615 294.002 98.615 L 269.896 98.615 Q 268.402 98.615 267.755 98.042 Q 267.107 97.469 267.107 96.523 Q 267.107 95.577 267.755 95.004 Q 268.402 94.431 269.896 94.431 L 282.995 94.431 Z"/>
        <path d="M 344.313 21.119 L 342.42 54.886 Q 342.32 56.48 341.748 57.127 Q 341.175 57.775 340.328 57.775 Q 339.432 57.775 338.859 57.127 Q 338.286 56.48 338.187 54.886 L 336.344 21.119 Q 336.244 19.923 336.244 19.375 Q 336.244 17.682 337.415 16.536 Q 338.585 15.391 340.328 15.391 Q 342.071 15.391 343.217 16.536 Q 344.362 17.682 344.362 19.425 Q 344.362 19.923 344.313 21.119 Z M 339.332 70.525 L 341.275 70.525 Q 343.416 70.525 344.935 72.044 Q 346.454 73.563 346.454 75.704 Q 346.454 77.896 344.91 79.39 Q 343.366 80.884 341.275 80.884 L 339.332 80.884 Q 337.191 80.884 335.672 79.365 Q 334.152 77.846 334.152 75.754 Q 334.152 73.513 335.696 72.019 Q 337.24 70.525 339.332 70.525 Z"/>
        <path stroke-width="10px" d="M 8.449 89.685 L 264.449 89.921"/>
        <path stroke-width="10px" d="M 299 89.868 L 360 89.914"/>
    </g>
    <g fill="#629755" stroke="#629755" stroke-width="0">
        <path d="M 33.58 110.028 L 33.751 109.259 C 33.8 109.031 33.824 108.799 33.824 108.563 C 33.824 107.953 33.645 107.471 33.287 107.117 C 32.929 106.763 32.441 106.586 31.822 106.586 C 31.228 106.586 30.628 106.779 30.021 107.165 C 29.415 107.552 28.909 108.071 28.502 108.722 C 27.835 109.788 27.387 110.85 27.159 111.908 L 26.378 115.619 C 26.215 116.36 26.133 117.015 26.133 117.584 C 26.133 118.853 26.402 119.814 26.939 120.465 C 27.346 120.945 27.96 121.185 28.782 121.185 C 29.913 121.185 30.784 120.933 31.395 120.428 C 31.72 120.168 31.985 120.038 32.188 120.038 C 32.416 120.038 32.599 120.107 32.737 120.245 C 32.876 120.384 32.945 120.563 32.945 120.782 C 32.945 121.221 32.644 121.641 32.042 122.04 C 31.073 122.691 29.824 123.016 28.294 123.016 C 27.025 123.016 26.034 122.607 25.322 121.789 C 24.61 120.972 24.254 119.668 24.254 117.877 C 24.254 117.242 24.335 116.547 24.498 115.79 L 25.352 111.774 C 25.743 109.918 26.516 108.331 27.672 107.013 C 28.99 105.499 30.499 104.742 32.2 104.742 C 33.275 104.742 34.127 105.053 34.758 105.676 C 35.389 106.299 35.704 107.167 35.704 108.282 C 35.704 108.575 35.663 108.901 35.582 109.259 L 34.166 115.936 C 34.418 116.058 34.544 116.266 34.544 116.559 C 34.544 116.868 34.42 117.137 34.172 117.364 C 33.923 117.592 33.551 117.706 33.055 117.706 L 31.944 117.706 L 31.968 117.633 C 31.561 117.69 31.26 117.718 31.065 117.718 C 30.251 117.718 29.559 117.435 28.99 116.87 C 28.42 116.305 28.135 115.623 28.135 114.825 C 28.135 113.678 28.642 112.618 29.655 111.645 C 30.668 110.673 31.977 110.134 33.58 110.028 Z M 33.177 111.92 C 32.184 112.009 31.409 112.31 30.851 112.823 C 30.294 113.336 30.015 113.881 30.015 114.459 C 30.015 114.825 30.166 115.144 30.467 115.417 C 30.768 115.69 31.191 115.826 31.736 115.826 C 31.875 115.826 32.082 115.814 32.359 115.79 L 33.177 111.92 Z"/>
        <path d="M 49.873 110.309 C 50.239 110.024 50.577 109.881 50.886 109.881 C 51.171 109.881 51.409 109.973 51.6 110.156 C 51.791 110.339 51.887 110.557 51.887 110.809 C 51.887 110.964 51.85 111.208 51.777 111.542 L 51.435 113.153 C 51.305 113.755 51.098 114.182 50.813 114.435 C 50.528 114.687 50.198 114.813 49.824 114.813 C 49.474 114.813 49.205 114.715 49.018 114.52 C 48.872 114.373 48.799 114.076 48.799 113.629 C 48.799 113.182 48.648 112.848 48.347 112.628 C 47.769 112.229 46.959 112.03 45.918 112.03 C 44.315 112.03 43.045 112.628 42.109 113.824 C 41.466 114.646 41.145 115.517 41.145 116.437 C 41.145 117.169 41.428 117.755 41.993 118.194 C 42.559 118.634 43.558 118.854 44.99 118.854 C 46.015 118.854 46.882 118.748 47.59 118.536 C 48.013 118.406 48.435 118.184 48.854 117.871 C 49.273 117.558 49.624 117.401 49.909 117.401 C 50.202 117.401 50.445 117.499 50.636 117.694 C 50.827 117.889 50.923 118.133 50.923 118.426 C 50.923 119.012 50.52 119.561 49.714 120.074 C 48.379 120.929 46.548 121.356 44.221 121.356 C 42.292 121.356 40.87 120.949 39.955 120.135 C 39.039 119.322 38.581 118.28 38.581 117.01 C 38.581 115.814 38.929 114.608 39.625 113.391 C 40.321 112.174 41.283 111.226 42.512 110.547 C 43.741 109.867 45.059 109.527 46.467 109.527 C 47.15 109.527 47.777 109.592 48.347 109.723 C 48.916 109.853 49.425 110.048 49.873 110.309 Z"/>
        <path d="M 63.338 105.108 L 60.506 118.439 L 63.521 118.439 C 64.074 118.439 64.451 118.524 64.65 118.695 C 64.849 118.866 64.949 119.11 64.949 119.427 C 64.949 119.932 64.705 120.351 64.217 120.685 C 63.973 120.856 63.562 120.941 62.984 120.941 L 54.463 120.941 C 53.91 120.941 53.533 120.854 53.334 120.679 C 53.135 120.504 53.035 120.261 53.035 119.952 C 53.035 119.447 53.271 119.032 53.743 118.707 C 54.004 118.528 54.423 118.439 55.001 118.439 L 58.003 118.439 L 60.311 107.611 L 58.296 107.611 C 57.743 107.611 57.366 107.523 57.167 107.348 C 56.968 107.173 56.868 106.931 56.868 106.622 C 56.868 106.126 57.104 105.711 57.576 105.377 C 57.829 105.198 58.244 105.108 58.821 105.108 L 63.338 105.108 Z"/>
        <path d="M 75.961 120.941 L 76.083 120.355 C 74.692 121.014 73.219 121.344 71.664 121.344 C 70.509 121.344 69.589 121.051 68.905 120.465 C 68.222 119.879 67.88 119.212 67.88 118.463 C 67.88 117.852 68.116 117.209 68.588 116.534 C 69.223 115.623 70.095 114.915 71.206 114.41 C 72.317 113.905 73.548 113.653 74.899 113.653 C 75.648 113.653 76.502 113.735 77.462 113.898 L 77.584 113.299 C 77.601 113.218 77.609 113.136 77.609 113.055 C 77.609 112.754 77.491 112.522 77.255 112.359 C 76.946 112.14 76.372 112.03 75.534 112.03 C 74.769 112.03 73.78 112.176 72.567 112.469 C 72.112 112.575 71.754 112.628 71.493 112.628 C 71.224 112.628 71.001 112.538 70.822 112.359 C 70.643 112.18 70.553 111.944 70.553 111.651 C 70.553 111.244 70.683 110.909 70.944 110.644 C 71.204 110.38 71.918 110.128 73.086 109.888 C 74.254 109.647 75.257 109.527 76.095 109.527 C 77.462 109.527 78.486 109.81 79.165 110.376 C 79.844 110.941 80.184 111.631 80.184 112.445 C 80.184 112.706 80.156 112.986 80.099 113.287 L 79 118.439 L 79.428 118.439 C 79.989 118.439 80.368 118.524 80.563 118.695 C 80.758 118.866 80.856 119.11 80.856 119.427 C 80.856 119.932 80.616 120.351 80.136 120.685 C 79.883 120.856 79.472 120.941 78.903 120.941 L 75.961 120.941 Z M 76.913 116.461 C 75.961 116.266 75.058 116.168 74.203 116.168 C 73.096 116.168 72.095 116.465 71.2 117.059 C 70.687 117.393 70.431 117.71 70.431 118.011 C 70.431 118.256 70.608 118.457 70.962 118.616 C 71.316 118.775 71.77 118.854 72.323 118.854 C 72.901 118.854 73.599 118.738 74.417 118.506 C 75.234 118.274 75.989 117.95 76.681 117.535 L 76.913 116.461 Z"/>
        <path d="M 93.145 112.787 C 92.795 112.534 92.41 112.345 91.991 112.219 C 91.572 112.093 91.115 112.03 90.618 112.03 C 89.821 112.03 89.141 112.138 88.58 112.353 C 88.018 112.569 87.737 112.787 87.737 113.006 C 87.737 113.153 87.831 113.291 88.018 113.421 C 88.27 113.6 88.864 113.755 89.8 113.885 C 91.249 114.089 92.309 114.301 92.98 114.52 C 93.651 114.74 94.186 115.094 94.585 115.582 C 94.984 116.071 95.184 116.612 95.184 117.206 C 95.184 118.402 94.541 119.391 93.255 120.172 C 91.969 120.953 90.476 121.344 88.775 121.344 C 88.05 121.344 87.391 121.281 86.797 121.155 C 86.203 121.028 85.678 120.843 85.223 120.599 C 84.922 120.819 84.633 120.929 84.356 120.929 C 84.039 120.929 83.784 120.837 83.593 120.654 C 83.402 120.471 83.306 120.253 83.306 120.001 C 83.306 119.838 83.343 119.59 83.416 119.256 L 83.599 118.414 C 83.721 117.804 83.927 117.373 84.216 117.12 C 84.505 116.868 84.836 116.742 85.21 116.742 C 85.511 116.742 85.743 116.825 85.906 116.992 C 86.069 117.159 86.166 117.446 86.199 117.853 C 86.508 118.178 86.915 118.424 87.42 118.591 C 87.925 118.758 88.527 118.841 89.227 118.841 C 90.456 118.841 91.424 118.642 92.132 118.243 C 92.449 118.064 92.608 117.861 92.608 117.633 C 92.608 117.316 92.413 117.063 92.022 116.876 C 91.631 116.697 90.809 116.539 89.556 116.4 C 87.757 116.205 86.577 115.871 86.016 115.399 C 85.455 114.927 85.174 114.321 85.174 113.58 C 85.174 112.937 85.381 112.327 85.796 111.749 C 86.211 111.171 86.834 110.683 87.664 110.284 C 88.738 109.779 89.894 109.527 91.131 109.527 C 91.709 109.527 92.254 109.582 92.767 109.692 C 93.28 109.802 93.756 109.971 94.195 110.199 C 94.545 109.971 94.834 109.857 95.062 109.857 C 95.322 109.857 95.546 109.949 95.733 110.132 C 95.92 110.315 96.014 110.528 96.014 110.773 C 96.014 110.944 95.981 111.196 95.916 111.529 L 95.782 112.14 C 95.651 112.742 95.442 113.171 95.153 113.428 C 94.864 113.684 94.533 113.812 94.158 113.812 C 93.857 113.812 93.613 113.718 93.426 113.531 C 93.239 113.344 93.145 113.096 93.145 112.787 Z"/>
        <path d="M 108.148 112.787 C 107.798 112.534 107.414 112.345 106.995 112.219 C 106.576 112.093 106.118 112.03 105.621 112.03 C 104.824 112.03 104.144 112.138 103.583 112.353 C 103.022 112.569 102.741 112.787 102.741 113.006 C 102.741 113.153 102.834 113.291 103.021 113.421 C 103.274 113.6 103.868 113.755 104.804 113.885 C 106.252 114.089 107.312 114.301 107.983 114.52 C 108.655 114.74 109.19 115.094 109.589 115.582 C 109.988 116.071 110.187 116.612 110.187 117.206 C 110.187 118.402 109.544 119.391 108.258 120.172 C 106.972 120.953 105.479 121.344 103.778 121.344 C 103.054 121.344 102.395 121.281 101.801 121.155 C 101.207 121.028 100.682 120.843 100.226 120.599 C 99.925 120.819 99.636 120.929 99.359 120.929 C 99.042 120.929 98.787 120.837 98.596 120.654 C 98.405 120.471 98.309 120.253 98.309 120.001 C 98.309 119.838 98.346 119.59 98.419 119.256 L 98.602 118.414 C 98.724 117.804 98.93 117.373 99.219 117.12 C 99.508 116.868 99.839 116.742 100.214 116.742 C 100.515 116.742 100.747 116.825 100.91 116.992 C 101.073 117.159 101.17 117.446 101.202 117.853 C 101.511 118.178 101.918 118.424 102.423 118.591 C 102.928 118.758 103.53 118.841 104.23 118.841 C 105.459 118.841 106.427 118.642 107.135 118.243 C 107.452 118.064 107.611 117.861 107.611 117.633 C 107.611 117.316 107.416 117.063 107.025 116.876 C 106.634 116.697 105.812 116.539 104.559 116.4 C 102.761 116.205 101.581 115.871 101.019 115.399 C 100.458 114.927 100.177 114.321 100.177 113.58 C 100.177 112.937 100.385 112.327 100.8 111.749 C 101.215 111.171 101.837 110.683 102.667 110.284 C 103.742 109.779 104.897 109.527 106.134 109.527 C 106.712 109.527 107.257 109.582 107.77 109.692 C 108.283 109.802 108.759 109.971 109.198 110.199 C 109.548 109.971 109.837 109.857 110.065 109.857 C 110.325 109.857 110.549 109.949 110.736 110.132 C 110.923 110.315 111.017 110.528 111.017 110.773 C 111.017 110.944 110.984 111.196 110.919 111.529 L 110.785 112.14 C 110.655 112.742 110.445 113.171 110.156 113.428 C 109.867 113.684 109.536 113.812 109.161 113.812 C 108.86 113.812 108.616 113.718 108.429 113.531 C 108.242 113.344 108.148 113.096 108.148 112.787 Z"/>
        <path stroke-width="2px" d="M 21.214 123.695 L 111.222 123.958"/>
    </g>
    <g fill="#8A653B">
        <path d="M 141.78 107.684 L 141.78 116.742 C 141.78 117.987 141.316 119.065 140.389 119.977 C 139.461 120.888 138.354 121.344 137.068 121.344 C 136.295 121.344 135.537 121.167 134.792 120.813 C 134.047 120.459 133.235 119.879 132.356 119.073 L 132.356 115.289 C 132.356 115.045 132.405 114.87 132.503 114.764 C 132.6 114.659 132.722 114.606 132.869 114.606 C 133.024 114.606 133.15 114.659 133.248 114.764 C 133.345 114.87 133.394 115.045 133.394 115.289 L 133.382 118.585 C 134.009 119.163 134.629 119.596 135.243 119.885 C 135.858 120.174 136.466 120.318 137.068 120.318 C 137.735 120.318 138.366 120.155 138.96 119.83 C 139.408 119.586 139.817 119.175 140.187 118.597 C 140.558 118.02 140.743 117.401 140.743 116.742 L 140.743 107.684 L 136.727 107.684 C 136.474 107.684 136.295 107.637 136.189 107.544 C 136.084 107.45 136.031 107.326 136.031 107.171 C 136.031 107.017 136.084 106.893 136.189 106.799 C 136.295 106.706 136.474 106.659 136.727 106.659 L 144.222 106.659 C 144.466 106.659 144.641 106.706 144.747 106.799 C 144.852 106.893 144.905 107.017 144.905 107.171 C 144.905 107.326 144.852 107.45 144.747 107.544 C 144.641 107.637 144.466 107.684 144.222 107.684 L 141.78 107.684 Z"/>
        <path d="M 156.438 107.684 L 156.438 107.342 C 156.438 107.098 156.485 106.923 156.578 106.817 C 156.671 106.712 156.795 106.659 156.95 106.659 C 157.105 106.659 157.229 106.712 157.323 106.817 C 157.416 106.923 157.463 107.098 157.463 107.342 L 157.463 109.955 C 157.463 110.199 157.416 110.374 157.323 110.48 C 157.229 110.585 157.105 110.638 156.95 110.638 C 156.804 110.638 156.684 110.589 156.59 110.492 C 156.497 110.394 156.446 110.235 156.438 110.016 C 156.397 109.332 156.045 108.717 155.382 108.172 C 154.719 107.627 153.85 107.355 152.775 107.355 C 151.644 107.355 150.745 107.646 150.078 108.227 C 149.411 108.809 149.077 109.495 149.077 110.284 C 149.077 110.691 149.17 111.062 149.357 111.395 C 149.544 111.729 149.793 112 150.102 112.207 C 150.411 112.414 150.761 112.581 151.152 112.707 C 151.543 112.834 152.153 112.966 152.983 113.104 C 154.374 113.332 155.335 113.564 155.864 113.8 C 156.572 114.117 157.107 114.557 157.469 115.118 C 157.831 115.68 158.012 116.343 158.012 117.108 C 158.012 118.28 157.544 119.279 156.608 120.105 C 155.673 120.931 154.411 121.344 152.824 121.344 C 151.042 121.344 149.618 120.786 148.552 119.671 L 148.552 120.257 C 148.552 120.502 148.505 120.677 148.411 120.782 C 148.318 120.888 148.194 120.941 148.039 120.941 C 147.892 120.941 147.77 120.888 147.673 120.782 C 147.575 120.677 147.526 120.502 147.526 120.257 L 147.526 117.425 C 147.526 117.173 147.573 116.994 147.667 116.888 C 147.76 116.783 147.884 116.73 148.039 116.73 C 148.186 116.73 148.306 116.779 148.399 116.876 C 148.493 116.974 148.544 117.133 148.552 117.352 C 148.593 118.101 148.993 118.782 149.754 119.397 C 150.515 120.011 151.539 120.318 152.824 120.318 C 154.11 120.318 155.125 119.997 155.87 119.354 C 156.615 118.711 156.987 117.95 156.987 117.071 C 156.987 116.534 156.845 116.056 156.56 115.637 C 156.275 115.218 155.851 114.886 155.29 114.642 C 154.899 114.471 154.086 114.28 152.849 114.068 C 151.148 113.783 149.923 113.348 149.174 112.762 C 148.425 112.176 148.051 111.342 148.051 110.26 C 148.051 109.186 148.48 108.262 149.339 107.489 C 150.198 106.716 151.331 106.329 152.739 106.329 C 154.171 106.329 155.404 106.781 156.438 107.684 Z"/>
        <path d="M 163.75 119.916 L 163.75 107.684 L 162.884 107.684 C 162.639 107.684 162.464 107.637 162.359 107.544 C 162.253 107.45 162.2 107.326 162.2 107.171 C 162.2 107.017 162.253 106.893 162.359 106.799 C 162.464 106.706 162.639 106.659 162.884 106.659 L 168.401 106.659 C 169.264 106.659 170.051 106.838 170.763 107.196 C 171.475 107.554 172.018 107.961 172.393 108.417 C 173.036 109.19 173.524 110.007 173.858 110.87 C 174.094 111.497 174.212 112.237 174.212 113.092 L 174.212 114.508 C 174.212 115.558 173.98 116.575 173.516 117.56 C 173.052 118.545 172.279 119.403 171.197 120.135 C 170.391 120.672 169.459 120.941 168.401 120.941 L 162.884 120.941 C 162.639 120.941 162.464 120.892 162.359 120.795 C 162.253 120.697 162.2 120.575 162.2 120.428 C 162.2 120.273 162.253 120.149 162.359 120.056 C 162.464 119.963 162.639 119.916 162.884 119.916 L 163.75 119.916 Z M 164.776 119.916 L 168.499 119.916 C 169.362 119.916 170.169 119.635 170.922 119.073 C 171.675 118.512 172.24 117.838 172.619 117.053 C 172.997 116.268 173.186 115.493 173.186 114.728 L 173.186 112.872 C 173.186 112.237 173.084 111.672 172.881 111.175 C 172.588 110.451 172.173 109.763 171.636 109.112 C 171.343 108.754 170.912 108.427 170.342 108.13 C 169.773 107.833 169.158 107.684 168.499 107.684 L 164.776 107.684 L 164.776 119.916 Z"/>
        <path d="M 188.507 115.68 C 188.507 117.243 187.948 118.577 186.829 119.684 C 185.71 120.791 184.361 121.344 182.782 121.344 C 181.187 121.344 179.832 120.789 178.717 119.678 C 177.602 118.567 177.045 117.234 177.045 115.68 C 177.045 114.117 177.602 112.781 178.717 111.67 C 179.832 110.559 181.187 110.004 182.782 110.004 C 184.361 110.004 185.71 110.557 186.829 111.664 C 187.948 112.771 188.507 114.109 188.507 115.68 Z M 187.469 115.68 C 187.469 114.394 187.011 113.299 186.096 112.396 C 185.181 111.493 184.072 111.041 182.77 111.041 C 181.468 111.041 180.359 111.495 179.443 112.402 C 178.528 113.309 178.07 114.402 178.07 115.68 C 178.07 116.949 178.528 118.04 179.443 118.951 C 180.359 119.862 181.468 120.318 182.77 120.318 C 184.072 120.318 185.181 119.864 186.096 118.957 C 187.011 118.05 187.469 116.957 187.469 115.68 Z"/>
        <path d="M 202.054 111.407 L 202.054 111.066 C 202.054 110.813 202.103 110.634 202.2 110.528 C 202.298 110.423 202.42 110.37 202.566 110.37 C 202.721 110.37 202.847 110.423 202.945 110.528 C 203.042 110.634 203.091 110.813 203.091 111.066 L 203.091 113.385 C 203.083 113.637 203.032 113.816 202.939 113.922 C 202.845 114.028 202.721 114.081 202.566 114.081 C 202.428 114.081 202.312 114.034 202.218 113.94 C 202.125 113.847 202.07 113.69 202.054 113.47 C 202.005 112.893 201.624 112.343 200.912 111.822 C 200.2 111.301 199.242 111.041 198.037 111.041 C 196.516 111.041 195.36 111.517 194.571 112.469 C 193.782 113.422 193.387 114.512 193.387 115.741 C 193.387 117.068 193.822 118.162 194.693 119.024 C 195.564 119.887 196.691 120.318 198.074 120.318 C 198.871 120.318 199.683 120.172 200.509 119.879 C 201.335 119.586 202.082 119.114 202.749 118.463 C 202.92 118.3 203.071 118.219 203.201 118.219 C 203.34 118.219 203.456 118.266 203.549 118.359 C 203.642 118.453 203.689 118.569 203.689 118.707 C 203.689 119.057 203.278 119.501 202.456 120.038 C 201.13 120.909 199.653 121.344 198.025 121.344 C 196.373 121.344 195.016 120.817 193.954 119.763 C 192.892 118.709 192.361 117.372 192.361 115.753 C 192.361 114.101 192.904 112.73 193.991 111.639 C 195.077 110.549 196.446 110.004 198.098 110.004 C 199.669 110.004 200.987 110.472 202.054 111.407 Z"/>
        <path d="M 212.565 117.999 L 213.004 117.999 C 213.46 117.999 213.851 118.16 214.176 118.481 C 214.501 118.802 214.664 119.191 214.664 119.647 C 214.664 120.119 214.499 120.514 214.17 120.831 C 213.84 121.148 213.451 121.307 213.004 121.307 L 212.565 121.307 C 212.109 121.307 211.718 121.146 211.393 120.825 C 211.067 120.504 210.904 120.115 210.904 119.659 C 210.904 119.187 211.069 118.792 211.399 118.475 C 211.728 118.158 212.117 117.999 212.565 117.999 Z"/>
        <path d="M 228.288 107.684 L 228.288 119.916 L 230.949 119.916 C 231.193 119.916 231.368 119.963 231.474 120.056 C 231.58 120.149 231.633 120.273 231.633 120.428 C 231.633 120.575 231.58 120.697 231.474 120.795 C 231.368 120.892 231.193 120.941 230.949 120.941 L 224.589 120.941 C 224.345 120.941 224.17 120.892 224.064 120.795 C 223.959 120.697 223.906 120.575 223.906 120.428 C 223.906 120.273 223.959 120.149 224.064 120.056 C 224.17 119.963 224.345 119.916 224.589 119.916 L 227.25 119.916 L 227.25 107.684 L 223.051 107.684 L 223.051 111.236 C 223.051 111.489 223.004 111.668 222.911 111.774 C 222.817 111.879 222.693 111.932 222.539 111.932 C 222.392 111.932 222.27 111.879 222.172 111.774 C 222.075 111.668 222.026 111.489 222.026 111.236 L 222.026 106.659 L 233.513 106.659 L 233.513 111.236 C 233.513 111.489 233.466 111.668 233.372 111.774 C 233.279 111.879 233.155 111.932 233 111.932 C 232.845 111.932 232.721 111.879 232.628 111.774 C 232.534 111.668 232.487 111.489 232.487 111.236 L 232.487 107.684 L 228.288 107.684 Z"/>
        <path d="M 248.329 115.899 L 237.879 115.899 C 238.058 117.226 238.614 118.294 239.546 119.104 C 240.477 119.913 241.631 120.318 243.006 120.318 C 243.771 120.318 244.573 120.192 245.411 119.94 C 246.25 119.688 246.933 119.354 247.462 118.939 C 247.617 118.817 247.751 118.756 247.865 118.756 C 247.995 118.756 248.109 118.807 248.207 118.909 C 248.304 119.01 248.353 119.13 248.353 119.269 C 248.353 119.407 248.288 119.541 248.158 119.671 C 247.767 120.078 247.074 120.459 246.077 120.813 C 245.08 121.167 244.056 121.344 243.006 121.344 C 241.249 121.344 239.782 120.768 238.606 119.617 C 237.43 118.465 236.842 117.071 236.842 115.436 C 236.842 113.947 237.393 112.669 238.496 111.603 C 239.599 110.537 240.964 110.004 242.591 110.004 C 244.268 110.004 245.647 110.551 246.73 111.645 C 247.812 112.74 248.345 114.158 248.329 115.899 Z M 247.291 114.862 C 247.088 113.731 246.553 112.811 245.686 112.103 C 244.819 111.395 243.788 111.041 242.591 111.041 C 241.395 111.041 240.366 111.391 239.503 112.091 C 238.64 112.791 238.103 113.715 237.892 114.862 L 247.291 114.862 Z"/>
        <path d="M 253.115 110.37 L 253.115 111.407 C 253.986 110.472 254.86 110.004 255.739 110.004 C 256.268 110.004 256.732 110.144 257.131 110.425 C 257.53 110.706 257.863 111.131 258.132 111.7 C 258.587 111.131 259.049 110.706 259.517 110.425 C 259.985 110.144 260.455 110.004 260.927 110.004 C 261.668 110.004 262.258 110.244 262.697 110.724 C 263.275 111.342 263.564 112.017 263.564 112.75 L 263.564 119.916 L 264.431 119.916 C 264.675 119.916 264.85 119.963 264.955 120.056 C 265.061 120.149 265.114 120.273 265.114 120.428 C 265.114 120.575 265.061 120.697 264.955 120.795 C 264.85 120.892 264.675 120.941 264.431 120.941 L 262.538 120.941 L 262.538 112.848 C 262.538 112.327 262.379 111.895 262.062 111.554 C 261.745 111.212 261.379 111.041 260.964 111.041 C 260.589 111.041 260.195 111.181 259.78 111.462 C 259.365 111.743 258.893 112.294 258.364 113.116 L 258.364 119.916 L 259.218 119.916 C 259.462 119.916 259.637 119.963 259.743 120.056 C 259.849 120.149 259.902 120.273 259.902 120.428 C 259.902 120.575 259.849 120.697 259.743 120.795 C 259.637 120.892 259.462 120.941 259.218 120.941 L 257.326 120.941 L 257.326 112.921 C 257.326 112.376 257.165 111.926 256.844 111.572 C 256.523 111.218 256.163 111.041 255.764 111.041 C 255.397 111.041 255.035 111.159 254.677 111.395 C 254.181 111.729 253.66 112.303 253.115 113.116 L 253.115 119.916 L 253.981 119.916 C 254.226 119.916 254.401 119.963 254.506 120.056 C 254.612 120.149 254.665 120.273 254.665 120.428 C 254.665 120.575 254.612 120.697 254.506 120.795 C 254.401 120.892 254.226 120.941 253.981 120.941 L 251.223 120.941 C 250.978 120.941 250.803 120.892 250.698 120.795 C 250.592 120.697 250.539 120.575 250.539 120.428 C 250.539 120.273 250.592 120.149 250.698 120.056 C 250.803 119.963 250.978 119.916 251.223 119.916 L 252.089 119.916 L 252.089 111.407 L 251.223 111.407 C 250.978 111.407 250.803 111.358 250.698 111.261 C 250.592 111.163 250.539 111.037 250.539 110.882 C 250.539 110.736 250.592 110.614 250.698 110.516 C 250.803 110.419 250.978 110.37 251.223 110.37 L 253.115 110.37 Z"/>
        <path d="M 268.924 110.37 L 268.924 112.237 C 269.534 111.497 270.189 110.94 270.889 110.565 C 271.589 110.191 272.415 110.004 273.367 110.004 C 274.376 110.004 275.308 110.24 276.162 110.712 C 277.017 111.184 277.678 111.841 278.146 112.683 C 278.614 113.525 278.848 114.41 278.848 115.338 C 278.848 116.811 278.321 118.07 277.267 119.116 C 276.213 120.162 274.917 120.685 273.379 120.685 C 271.548 120.685 270.063 119.94 268.924 118.451 L 268.924 124.628 L 271.414 124.628 C 271.658 124.628 271.833 124.675 271.939 124.768 C 272.044 124.861 272.097 124.985 272.097 125.14 C 272.097 125.287 272.044 125.409 271.939 125.506 C 271.833 125.604 271.658 125.653 271.414 125.653 L 266.519 125.653 C 266.275 125.653 266.1 125.606 265.994 125.513 C 265.888 125.419 265.835 125.295 265.835 125.14 C 265.835 124.985 265.888 124.861 265.994 124.768 C 266.1 124.675 266.275 124.628 266.519 124.628 L 267.898 124.628 L 267.898 111.407 L 266.519 111.407 C 266.275 111.407 266.1 111.358 265.994 111.261 C 265.888 111.163 265.835 111.037 265.835 110.882 C 265.835 110.736 265.888 110.614 265.994 110.516 C 266.1 110.419 266.275 110.37 266.519 110.37 L 268.924 110.37 Z M 277.81 115.338 C 277.81 114.158 277.381 113.147 276.522 112.305 C 275.664 111.462 274.616 111.041 273.379 111.041 C 272.134 111.041 271.08 111.464 270.218 112.311 C 269.355 113.157 268.924 114.166 268.924 115.338 C 268.924 116.518 269.355 117.531 270.218 118.378 C 271.08 119.224 272.134 119.647 273.379 119.647 C 274.608 119.647 275.653 119.226 276.516 118.384 C 277.379 117.541 277.81 116.526 277.81 115.338 Z"/>
        <path d="M 288.305 105.621 L 288.305 119.916 L 292.333 119.916 C 292.586 119.916 292.765 119.963 292.87 120.056 C 292.976 120.149 293.029 120.273 293.029 120.428 C 293.029 120.575 292.976 120.697 292.87 120.795 C 292.765 120.892 292.586 120.941 292.333 120.941 L 283.251 120.941 C 283.007 120.941 282.832 120.892 282.726 120.795 C 282.621 120.697 282.568 120.575 282.568 120.428 C 282.568 120.273 282.621 120.149 282.726 120.056 C 282.832 119.963 283.007 119.916 283.251 119.916 L 287.28 119.916 L 287.28 106.659 L 284.326 106.659 C 284.081 106.659 283.904 106.61 283.795 106.512 C 283.685 106.415 283.63 106.289 283.63 106.134 C 283.63 105.987 283.683 105.865 283.788 105.768 C 283.894 105.67 284.073 105.621 284.326 105.621 L 288.305 105.621 Z"/>
        <path d="M 305.737 120.941 L 305.737 119.464 C 304.248 120.717 302.658 121.344 300.965 121.344 C 299.736 121.344 298.775 121.033 298.084 120.41 C 297.392 119.787 297.046 119.024 297.046 118.121 C 297.046 117.128 297.502 116.262 298.413 115.521 C 299.324 114.78 300.655 114.41 302.405 114.41 C 302.877 114.41 303.39 114.441 303.943 114.502 C 304.496 114.563 305.094 114.658 305.737 114.789 L 305.737 113.129 C 305.737 112.567 305.477 112.079 304.956 111.664 C 304.435 111.249 303.654 111.041 302.612 111.041 C 301.815 111.041 300.696 111.273 299.256 111.737 C 298.995 111.818 298.828 111.859 298.755 111.859 C 298.625 111.859 298.513 111.81 298.419 111.712 C 298.326 111.615 298.279 111.493 298.279 111.346 C 298.279 111.208 298.32 111.098 298.401 111.017 C 298.515 110.895 298.975 110.728 299.78 110.516 C 301.05 110.175 302.01 110.004 302.661 110.004 C 303.955 110.004 304.964 110.323 305.689 110.962 C 306.413 111.601 306.775 112.323 306.775 113.129 L 306.775 119.916 L 308.142 119.916 C 308.395 119.916 308.574 119.963 308.679 120.056 C 308.785 120.149 308.838 120.273 308.838 120.428 C 308.838 120.575 308.785 120.697 308.679 120.795 C 308.574 120.892 308.395 120.941 308.142 120.941 L 305.737 120.941 Z M 305.737 115.838 C 305.257 115.7 304.749 115.598 304.212 115.533 C 303.675 115.468 303.109 115.436 302.515 115.436 C 301.026 115.436 299.862 115.757 299.024 116.4 C 298.389 116.88 298.071 117.454 298.071 118.121 C 298.071 118.74 298.313 119.261 298.798 119.684 C 299.282 120.107 299.988 120.318 300.916 120.318 C 301.803 120.318 302.627 120.141 303.388 119.787 C 304.149 119.433 304.932 118.87 305.737 118.097 L 305.737 115.838 Z"/>
        <path d="M 315.687 110.37 L 321.253 110.37 C 321.498 110.37 321.673 110.419 321.778 110.516 C 321.884 110.614 321.937 110.74 321.937 110.895 C 321.937 111.041 321.884 111.163 321.778 111.261 C 321.673 111.358 321.498 111.407 321.253 111.407 L 315.687 111.407 L 315.687 118.231 C 315.687 118.825 315.925 119.321 316.401 119.72 C 316.877 120.119 317.575 120.318 318.495 120.318 C 319.186 120.318 319.935 120.214 320.741 120.007 C 321.546 119.8 322.173 119.566 322.621 119.305 C 322.784 119.2 322.918 119.147 323.023 119.147 C 323.154 119.147 323.268 119.198 323.365 119.299 C 323.463 119.401 323.512 119.521 323.512 119.659 C 323.512 119.781 323.459 119.895 323.353 120.001 C 323.092 120.27 322.46 120.561 321.455 120.874 C 320.45 121.187 319.487 121.344 318.568 121.344 C 317.371 121.344 316.419 121.063 315.711 120.502 C 315.003 119.94 314.649 119.183 314.649 118.231 L 314.649 111.407 L 312.757 111.407 C 312.513 111.407 312.338 111.358 312.232 111.261 C 312.127 111.163 312.074 111.037 312.074 110.882 C 312.074 110.736 312.127 110.614 312.232 110.516 C 312.338 110.419 312.513 110.37 312.757 110.37 L 314.649 110.37 L 314.649 107.342 C 314.649 107.098 314.698 106.923 314.796 106.817 C 314.893 106.712 315.015 106.659 315.162 106.659 C 315.317 106.659 315.443 106.712 315.541 106.817 C 315.638 106.923 315.687 107.098 315.687 107.342 L 315.687 110.37 Z"/>
        <path d="M 338.34 115.899 L 327.891 115.899 C 328.07 117.226 328.625 118.294 329.557 119.104 C 330.489 119.913 331.643 120.318 333.018 120.318 C 333.783 120.318 334.584 120.192 335.422 119.94 C 336.261 119.688 336.944 119.354 337.473 118.939 C 337.628 118.817 337.762 118.756 337.876 118.756 C 338.006 118.756 338.12 118.807 338.218 118.909 C 338.315 119.01 338.364 119.13 338.364 119.269 C 338.364 119.407 338.299 119.541 338.169 119.671 C 337.778 120.078 337.085 120.459 336.088 120.813 C 335.091 121.167 334.067 121.344 333.018 121.344 C 331.26 121.344 329.793 120.768 328.617 119.617 C 327.441 118.465 326.853 117.071 326.853 115.436 C 326.853 113.947 327.404 112.669 328.507 111.603 C 329.61 110.537 330.975 110.004 332.603 110.004 C 334.279 110.004 335.658 110.551 336.741 111.645 C 337.823 112.74 338.356 114.158 338.34 115.899 Z M 337.302 114.862 C 337.099 113.731 336.564 112.811 335.697 112.103 C 334.83 111.395 333.799 111.041 332.603 111.041 C 331.406 111.041 330.377 111.391 329.514 112.091 C 328.651 112.791 328.114 113.715 327.903 114.862 L 337.302 114.862 Z"/>
    </g>
</svg>